<?xml version="1.0" encoding="UTF-8"?>
<svg version="1.1" xmlns="http://www.w3.org/2000/svg" width="500" height="500">
<path d="M0 0 C0.76570313 0.23203125 1.53140625 0.4640625 2.3203125 0.703125 C4.875 1.75 4.875 1.75 7.52954102 3.77026367 C13.04830984 6.92868131 19.4630043 6.39555635 25.64356422 6.45161629 C27.9956463 6.47300744 30.3462968 6.51790533 32.69792175 6.56846619 C36.84819674 6.65389322 40.99849202 6.71882436 45.14923096 6.7769165 C51.78049455 6.86987889 58.41119006 6.97978318 65.04169273 7.11675835 C67.34248261 7.15919622 69.64299773 7.18411809 71.94404602 7.20777893 C84.82003347 7.41139855 95.27115298 9.49178239 104.8515625 18.63671875 C112.63771916 27.06896075 116.43336019 36.69207977 116.1171875 48.1796875 C115.13793463 58.57240341 110.11446764 67.1331622 102.4375 74.125 C91.79972546 82.47482747 79.6700323 83.01999082 66.5625 83.375 C65.38002686 83.41294678 64.19755371 83.45089355 62.97924805 83.48999023 C54.9433853 83.73373571 46.91448853 83.8837438 38.875 83.75 C39.308125 84.69359375 39.74125 85.6371875 40.1875 86.609375 C45.36410378 98.33737793 46.74380614 107.55938877 42.13671875 119.92578125 C36.98482875 131.45772078 28.98394186 137.52479868 18.0625 143.3125 C17.11834229 143.81990723 16.17418457 144.32731445 15.20141602 144.85009766 C-0.6615059 153.3104949 -16.76785185 161.29245472 -33.125 168.75 C-29.37493924 173.73587623 -26.01007172 174.54132923 -19.94177246 175.41136169 C-18.85755005 175.5450264 -17.77332764 175.6786911 -16.65625 175.81640625 C-14.94242126 176.05358116 -14.94242126 176.05358116 -13.19396973 176.29554749 C-9.50675268 176.80093975 -5.81644162 177.27654556 -2.125 177.75 C0.31141717 178.07502078 2.74761704 178.4016748 5.18359375 178.72998047 C10.09993881 179.3894772 15.01654884 180.04691248 19.93359375 180.70117188 C21.15675293 180.86415771 22.37991211 181.02714355 23.64013672 181.19506836 C26.15797587 181.52703865 28.67655777 181.85341743 31.19580078 182.17456055 C34.91417792 182.65062153 38.62891825 183.14945745 42.34375 183.65234375 C43.45737915 183.78897934 44.5710083 183.92561493 45.71838379 184.06639099 C57.50376844 185.70481649 66.47724126 190.3012374 73.875 199.75 C76.15735422 203.64026543 78.05520454 207.62711913 79.875 211.75 C80.89442788 214.02221877 81.6279944 215.51654583 83.44140625 217.23046875 C85.75913049 219.68713014 85.74459287 222.20742457 86.00390625 225.47265625 C85.73639923 230.19861362 82.73090512 232.9166187 79.5 236.0625 C77.21487713 238.40203055 75.72226814 240.44836078 74 243.1875 C68.73369475 251.25446123 61.71885947 256.17045033 52.27172852 258.35083008 C49.62305738 258.79654456 46.97766973 259.16758705 44.3125 259.5 C43.39919922 259.62503906 42.48589844 259.75007813 41.54492188 259.87890625 C39.32293261 260.18137599 37.10009813 260.47150178 34.875 260.75 C34.92140625 261.95914062 34.9678125 263.16828125 35.015625 264.4140625 C35.4555489 280.85474324 33.0402206 295.00575734 21.625 307.5625 C20.93921875 308.27019531 20.2534375 308.97789062 19.546875 309.70703125 C17.74541968 311.60403024 17.74541968 311.60403024 17.37109375 313.87890625 C16.875 315.75 16.875 315.75 15.23828125 316.9453125 C13.12554709 317.90308532 11.01313743 318.85015073 8.875 319.75 C7.9675 320.1625 7.06 320.575 6.125 321 C-2.6956969 323.03554544 -11.26668655 322.4128736 -19.125 317.75 C-21.05318213 316.14384417 -22.72222521 314.46829522 -24.40234375 312.60546875 C-26.24525042 310.62047857 -28.21876252 308.96586221 -30.3125 307.25 C-33.85815015 304.15437468 -36.22577946 301.05915584 -38.125 296.75 C-38.53492188 295.84765625 -38.94484375 294.9453125 -39.3671875 294.015625 C-43.10512564 285.12419819 -44.72876189 276.22852698 -46.125 266.75 C-60.15858627 267.19722418 -74.16102438 268.02338511 -88.16705322 268.99227905 C-90.04592187 269.12175361 -91.92495148 269.24891446 -93.80413818 269.37368774 C-96.49236844 269.55321048 -99.17978317 269.74214519 -101.8671875 269.93359375 C-102.66656738 269.98573029 -103.46594727 270.03786682 -104.28955078 270.09158325 C-111.49178981 270.62431507 -118.44602509 271.72629319 -125 274.875 C-132.20095995 277.84664808 -138.82671763 277.61552442 -146.16674805 275.20605469 C-152.5771285 273.40361263 -158.42129134 273.57819217 -165.01953125 274.015625 C-166.21051926 274.08730896 -167.40150726 274.15899292 -168.62858582 274.23284912 C-171.12764076 274.39128114 -173.62606849 274.55990796 -176.1237793 274.73828125 C-179.94253729 275.00034569 -183.76125009 275.19641077 -187.58398438 275.390625 C-190.02110534 275.55326585 -192.45797041 275.71979796 -194.89453125 275.890625 C-196.0321138 275.94107971 -197.16969635 275.99153442 -198.3417511 276.04351807 C-204.34490753 276.48790082 -204.34490753 276.48790082 -209.16676331 279.76802063 C-211.85815546 283.72917825 -213.8364659 287.92429687 -215.4375 292.4375 C-218.38833344 299.86676877 -222.55476502 306.2324475 -227.125 312.75 C-227.69089844 313.55953125 -228.25679687 314.3690625 -228.83984375 315.203125 C-234.78205883 322.81613406 -244.11698636 327.12398355 -253.5703125 328.55859375 C-264.84275266 329.40316495 -273.74842545 326.72566045 -282.703125 319.73828125 C-289.37108106 313.58918932 -294.79219501 304.91076217 -295.29296875 295.640625 C-295.35750893 283.61033593 -295.35750893 283.61033593 -293.125 277.75 C-293.785 277.564375 -294.445 277.37875 -295.125 277.1875 C-302.60210471 273.60472066 -308.8486098 267.10135278 -312.09375 259.47265625 C-314.23445068 253.19921398 -314.4628777 247.33235809 -314.125 240.75 C-315.40375 240.688125 -316.6825 240.62625 -318 240.5625 C-323.61716545 239.94826162 -328.41063465 237.83349794 -333.125 234.75 C-335.68705842 230.90691236 -335.79866765 229.3159696 -335.125 224.75 C-329.11051767 214.73230918 -318.09323348 209.9715863 -307.20361328 207.23974609 C-302.90132892 206.22607656 -298.5834729 205.30757864 -294.25 204.4375 C-293.35821045 204.25364746 -292.4664209 204.06979492 -291.54760742 203.88037109 C-285.18282473 202.67297916 -279.76884297 201.98743802 -274.125 205.75 C-271.37651961 205.92141685 -268.7447677 205.98760852 -266 205.9375 C-264.84757812 205.91695557 -264.84757812 205.91695557 -263.671875 205.89599609 C-262.15841455 205.8642519 -260.64504711 205.82762308 -259.13183594 205.78564453 C-257.52799486 205.75715782 -255.92291352 205.80190067 -254.3203125 205.87109375 C-250.66046095 205.87760594 -248.82564032 205.36898675 -246.046875 202.9140625 C-243.65610442 200.2566952 -241.40057526 197.5065328 -239.125 194.75 C-228.86086551 183.25180471 -216.63994442 172.94358334 -203.1171875 165.47265625 C-200.05936803 164.07874587 -200.05936803 164.07874587 -199.125 161.75 C-199.96546875 161.48751465 -200.8059375 161.2250293 -201.671875 160.95458984 C-205.35089974 159.67119702 -208.85228531 158.12886268 -212.375 156.4765625 C-213.40566589 155.99670647 -213.40566589 155.99670647 -214.45715332 155.50715637 C-216.68215945 154.46811606 -218.90399527 153.42256435 -221.125 152.375 C-221.88288818 152.01818146 -222.64077637 151.66136292 -223.42163086 151.29373169 C-232.93852015 146.80312237 -242.37883432 142.21724291 -251.625 137.1875 C-252.45773438 136.73648926 -253.29046875 136.28547852 -254.1484375 135.82080078 C-266.80294114 128.78562283 -275.45331109 122.34386925 -280.4609375 108.4609375 C-281.19360083 105.46994719 -281.16999371 102.81857069 -281.125 99.75 C-281.72475647 99.75666183 -282.32451294 99.76332367 -282.94244385 99.77018738 C-289.23761584 99.83704093 -295.53268546 99.88200617 -301.828125 99.91479492 C-304.17126569 99.92979438 -306.51437873 99.95020059 -308.85742188 99.97631836 C-312.24355942 100.01309285 -315.62932278 100.02981537 -319.015625 100.04296875 C-320.04737854 100.05845261 -321.07913208 100.07393646 -322.14215088 100.08988953 C-334.4578163 100.0926798 -345.82920994 97.37605933 -355.125 88.93359375 C-363.6690674 79.81869426 -366.75034329 69.98928878 -366.45703125 57.70703125 C-365.56081633 47.02625809 -360.12862841 38.67172473 -352.125 31.75 C-345.23151698 27.16989153 -339.51033263 24.61089289 -331.23120117 24.65234375 C-330.03467422 24.65560165 -328.83814728 24.65885956 -327.60536194 24.66221619 C-326.30602219 24.67055984 -325.00668243 24.6789035 -323.66796875 24.6875 C-322.29955733 24.69230207 -320.93114377 24.69652723 -319.56272888 24.70021057 C-316.65527033 24.70855051 -313.747836 24.7193075 -310.84039307 24.73196411 C-303.29076057 24.76365739 -295.74109896 24.7733617 -288.19140625 24.77734375 C-287.44626015 24.77777113 -286.70111404 24.77819851 -285.93338776 24.77863884 C-273.53482627 24.78219129 -261.14403287 24.66369035 -248.75 24.3125 C-247.97102356 24.29043488 -247.19204712 24.26836975 -246.38946533 24.24563599 C-237.98306831 23.99888659 -229.58471321 23.65145328 -221.1875 23.1875 C-218.16714552 23.02946968 -215.14644955 22.88542536 -212.125 22.75 C-211.15546387 22.70391602 -210.18592773 22.65783203 -209.18701172 22.61035156 C-185.52500608 21.60843694 -185.52500608 21.60843694 -176.125 28.75 C-175.2896875 29.35328125 -174.454375 29.9565625 -173.59375 30.578125 C-167.41391056 35.51397079 -163.08297206 41.6164398 -161.61328125 49.4921875 C-161.45214844 50.23726562 -161.29101562 50.98234375 -161.125 51.75 C-159.80092331 52.43486725 -158.46590759 53.09870203 -157.125 53.75 C-154.67241668 56.74760184 -153.27893001 58.92903994 -152.5625 62.75 C-153.34049279 66.89929488 -155.16672634 68.79172634 -158.125 71.75 C-159.35863281 72.430625 -159.35863281 72.430625 -160.6171875 73.125 C-163.5033593 74.9951674 -164.46560664 76.54923166 -166.0625 79.5625 C-168.49549297 84.1376617 -171.40020359 87.20134138 -175.125 90.75 C-171.62817495 92.29893539 -168.12694087 93.83766998 -164.625 95.375 C-163.66207031 95.80167969 -162.69914063 96.22835937 -161.70703125 96.66796875 C-159.64882377 97.5692753 -157.58246473 98.45211829 -155.50976562 99.31958008 C-153.18616778 100.30154486 -150.88307005 101.33303623 -148.59960938 102.4050293 C-137.74400585 107.26499812 -127.49353383 107.58331317 -115.71630859 107.36743164 C-112.6291232 107.31257327 -109.54465478 107.30590559 -106.45703125 107.30664062 C-89.97940841 107.22314962 -75.66435238 105.74619351 -60.6875 98.3125 C-58.68892996 97.35520174 -56.69023403 96.39816623 -54.69140625 95.44140625 C-53.75441895 94.98652832 -52.81743164 94.53165039 -51.85205078 94.06298828 C-49.25616216 92.81315041 -46.65114089 91.59240632 -44.02734375 90.40234375 C-42.96567993 89.92075806 -42.96567993 89.92075806 -41.88256836 89.42944336 C-40.125 88.75 -40.125 88.75 -38.125 88.75 C-38.125 87.76 -38.125 86.77 -38.125 85.75 C-38.82431641 85.90847412 -39.52363281 86.06694824 -40.24414062 86.23022461 C-43.26991451 86.77614602 -46.14649998 86.95966574 -49.21875 87.06640625 C-50.4042041 87.10870361 -51.5896582 87.15100098 -52.81103516 87.19458008 C-58.01151802 87.35536828 -63.21192289 87.51307474 -68.41308594 87.65039062 C-70.72903546 87.71253923 -73.04484428 87.78054116 -75.36035156 87.85742188 C-91.34530683 88.37425646 -102.71458596 86.89364132 -115.125 75.75 C-122.72140143 67.16343626 -124.73693119 57.39174724 -124.48046875 46.15625 C-123.37632829 35.57591502 -117.25216905 26.40091463 -109.125 19.75 C-97.52227274 12.33985486 -85.13104326 12.42930025 -71.76171875 12.18359375 C-70.60800781 12.15394531 -69.45429688 12.12429687 -68.265625 12.09375 C-67.22954102 12.07505859 -66.19345703 12.05636719 -65.12597656 12.03710938 C-60.30300626 11.57568625 -56.14870423 9.794535 -51.75390625 7.859375 C-45.41817744 5.30279044 -38.85170896 3.88090622 -32.19311523 2.45751953 C-30.05980095 1.99942042 -27.93141195 1.52209861 -25.80273438 1.04296875 C-8.61429138 -2.74489285 -8.61429138 -2.74489285 0 0 Z " fill="#181611" transform="translate(375.125,86.25)"/>
<path d="M0 0 C0.76570313 0.23203125 1.53140625 0.4640625 2.3203125 0.703125 C4.875 1.75 4.875 1.75 7.52954102 3.77026367 C13.04830984 6.92868131 19.4630043 6.39555635 25.64356422 6.45161629 C27.9956463 6.47300744 30.3462968 6.51790533 32.69792175 6.56846619 C36.84819674 6.65389322 40.99849202 6.71882436 45.14923096 6.7769165 C51.78049455 6.86987889 58.41119006 6.97978318 65.04169273 7.11675835 C67.34248261 7.15919622 69.64299773 7.18411809 71.94404602 7.20777893 C84.82003347 7.41139855 95.27115298 9.49178239 104.8515625 18.63671875 C112.63771916 27.06896075 116.43336019 36.69207977 116.1171875 48.1796875 C115.13793463 58.57240341 110.11446764 67.1331622 102.4375 74.125 C91.79972546 82.47482747 79.6700323 83.01999082 66.5625 83.375 C65.38002686 83.41294678 64.19755371 83.45089355 62.97924805 83.48999023 C54.9433853 83.73373571 46.91448853 83.8837438 38.875 83.75 C39.308125 84.69359375 39.74125 85.6371875 40.1875 86.609375 C45.36410378 98.33737793 46.74380614 107.55938877 42.13671875 119.92578125 C36.98482875 131.45772078 28.98394186 137.52479868 18.0625 143.3125 C17.11834229 143.81990723 16.17418457 144.32731445 15.20141602 144.85009766 C-0.6615059 153.3104949 -16.76785185 161.29245472 -33.125 168.75 C-29.37493924 173.73587623 -26.01007172 174.54132923 -19.94177246 175.41136169 C-18.85755005 175.5450264 -17.77332764 175.6786911 -16.65625 175.81640625 C-14.94242126 176.05358116 -14.94242126 176.05358116 -13.19396973 176.29554749 C-9.50675268 176.80093975 -5.81644162 177.27654556 -2.125 177.75 C0.31141717 178.07502078 2.74761704 178.4016748 5.18359375 178.72998047 C10.09993881 179.3894772 15.01654884 180.04691248 19.93359375 180.70117188 C21.15675293 180.86415771 22.37991211 181.02714355 23.64013672 181.19506836 C26.15797587 181.52703865 28.67655777 181.85341743 31.19580078 182.17456055 C34.91417792 182.65062153 38.62891825 183.14945745 42.34375 183.65234375 C43.45737915 183.78897934 44.5710083 183.92561493 45.71838379 184.06639099 C57.50376844 185.70481649 66.47724126 190.3012374 73.875 199.75 C76.15735422 203.64026543 78.05520454 207.62711913 79.875 211.75 C80.89442788 214.02221877 81.6279944 215.51654583 83.44140625 217.23046875 C85.75913049 219.68713014 85.74459287 222.20742457 86.00390625 225.47265625 C85.73639923 230.19861362 82.73090512 232.9166187 79.5 236.0625 C77.21487713 238.40203055 75.72226814 240.44836078 74 243.1875 C68.73369475 251.25446123 61.71885947 256.17045033 52.27172852 258.35083008 C49.62305738 258.79654456 46.97766973 259.16758705 44.3125 259.5 C43.39919922 259.62503906 42.48589844 259.75007813 41.54492188 259.87890625 C39.32293261 260.18137599 37.10009813 260.47150178 34.875 260.75 C34.92140625 261.95914062 34.9678125 263.16828125 35.015625 264.4140625 C35.50010703 282.51995428 31.99184286 296.53492963 19.44921875 310.09765625 C18.92972656 310.64292969 18.41023438 311.18820312 17.875 311.75 C16.62322456 307.99467368 17.27013936 306.10525385 18.125 302.25 C18.41032241 300.89250641 18.69273985 299.53439986 18.97265625 298.17578125 C19.12105957 297.45600098 19.26946289 296.7362207 19.42236328 295.99462891 C21.51011877 285.64143367 23.14307317 275.39393549 23.25 264.8125 C23.26377686 264.06121826 23.27755371 263.30993652 23.29174805 262.53588867 C23.26450816 259.37351914 23.08931482 257.12813017 21.515625 254.3515625 C19.50060195 252.38451619 17.33267102 251.10818662 14.875 249.75 C12.97328222 247.84828222 13.73701386 245.04988521 13.6862793 242.51367188 C13.47440134 233.60635623 12.84448942 225.4654337 7.875 217.75 C5.17932619 215.28615413 4.15151353 214.78519263 0.4375 214.3125 C-3.87730358 214.84238816 -5.21934003 215.53021463 -8.125 218.75 C-12.37105399 226.54158056 -13.33910957 233.51770734 -13.5546875 242.28710938 C-13.77586061 247.48006967 -14.97652721 251.03370011 -17.125 255.75 C-17.125 257.07 -17.125 258.39 -17.125 259.75 C-13.58935537 262.10709642 -11.90474745 262.05009735 -7.70703125 262.1640625 C-6.45341797 262.20273437 -5.19980469 262.24140625 -3.90820312 262.28125 C-2.59787109 262.3121875 -1.28753906 262.343125 0.0625 262.375 C1.3978116 262.41319338 2.73309892 262.45224591 4.06835938 262.4921875 C7.33709888 262.58659153 10.60583064 262.67217017 13.875 262.75 C14.01914648 299.70275032 14.01914648 299.70275032 7.95703125 307.0859375 C3.47695557 310.66663589 -1.67171246 310.0649315 -7.125 309.75 C-11.12202165 309.040851 -13.31424247 308.56229306 -16.1875 305.68359375 C-18.60511875 302.023046 -19.40150975 298.75891791 -20.25 294.5 C-20.41685303 293.71439697 -20.58370605 292.92879395 -20.75561523 292.11938477 C-21.86761243 286.66618538 -22.6089539 281.21988579 -23.1875 275.6875 C-24.27132451 265.53081152 -26.38792464 259.12623975 -32.69921875 251.01171875 C-34.125 248.75 -34.125 248.75 -34.125 244.75 C-29.30139811 244.55705592 -25.62853262 244.99252386 -21.125 246.75 C-21.455 243.78 -21.785 240.81 -22.125 237.75 C-29.055 237.75 -35.985 237.75 -43.125 237.75 C-43.785 236.43 -44.445 235.11 -45.125 233.75 C-48.1015528 232.69945195 -50.46705462 232.76832435 -53.625 232.9375 C-59.72114351 233.06645688 -65.42740118 230.69552155 -71.125 228.75 C-71.0625 227 -71.0625 227 -70.125 224.75 C-65.38465495 221.45992486 -61.29039303 220.06242482 -55.5625 219.0625 C-54.87865234 218.94221436 -54.19480469 218.82192871 -53.49023438 218.69799805 C-46.73458156 217.56868327 -39.96629986 217.0599964 -33.125 216.75 C-32.84283656 212.12438483 -32.84283656 212.12438483 -34.125 207.8125 C-38.4658579 205.50641924 -43.40818101 206.54308318 -47.9140625 207.84375 C-49.19440117 208.30785625 -50.47301458 208.77674535 -51.75 209.25 C-59.54412793 211.88042652 -68.38630594 214.16413868 -76.31640625 210.828125 C-77.59383735 210.0067288 -78.84504057 209.1434402 -80.0703125 208.24609375 C-96.6664491 196.16183459 -119.22736289 196.38136475 -138.90420532 196.15692139 C-140.73422437 196.13593304 -142.56416822 196.10627702 -144.39389038 196.06719971 C-159.76861979 195.78295656 -172.30013859 197.96182893 -184.75 207.625 C-191.67639038 212.70264903 -196.80789904 212.59135057 -205.125 211.75 C-206.55816929 211.67842438 -207.99183229 211.6162371 -209.42578125 211.5625 C-221.4336905 211.05472623 -221.4336905 211.05472623 -225.125 208.75 C-221.7580773 204.69917113 -218.44153051 200.91308743 -214.3125 197.625 C-210.51011642 194.43921916 -207.94723564 190.81873893 -205.1875 186.75 C-201.6636488 181.56299421 -198.20553458 177.7851449 -193.04296875 174.12109375 C-189.18211742 171.36109616 -187.45581809 169.00238277 -186.25 164.4375 C-187.44489903 159.40185408 -189.96861033 158.34697156 -194.05078125 155.39453125 C-201.44429833 149.51305 -206.67254124 140.52019111 -212.171875 132.921875 C-221.83214301 122.17965698 -242.60049507 119.13342293 -256.4375 118.375 C-261.15348061 118.04160805 -263.87718606 117.44578828 -267.125 113.75 C-268.73969808 110.52060384 -268.70363559 107.2419985 -268.125 103.75 C-266.125 101 -266.125 101 -263.125 98.75 C-262.60164063 98.35683594 -262.07828125 97.96367187 -261.5390625 97.55859375 C-254.24504969 92.9878914 -244.65140409 93.7747791 -236.53515625 95.5234375 C-233.125 96.75 -233.125 96.75 -230.37109375 98.609375 C-225.91296776 101.54927036 -221.19026432 103.1852993 -216.1875 105 C-214.61198364 105.58044067 -214.61198364 105.58044067 -213.00463867 106.17260742 C-191.47066277 114.10341241 -191.47066277 114.10341241 -169.55078125 120.86328125 C-167.125 121.75 -167.125 121.75 -165.35546875 123.41796875 C-161.67333648 125.6169304 -158.19127586 124.59278455 -154.125 123.75 C-150.76516814 122.88072384 -147.47992999 121.84489436 -144.1875 120.75 C-142.91422852 120.34007812 -142.91422852 120.34007812 -141.61523438 119.921875 C-137.28485426 118.54821146 -137.28485426 118.54821146 -133.125 116.75 C-130.80083704 116.66413191 -128.47416693 116.64288957 -126.1484375 116.65234375 C-125.12056625 116.65446617 -125.12056625 116.65446617 -124.07192993 116.65663147 C-121.88124239 116.66223325 -119.6906567 116.67478594 -117.5 116.6875 C-116.01562648 116.69251478 -114.53125135 116.69707772 -113.046875 116.70117188 C-109.40621685 116.71220323 -105.76561836 116.72946901 -102.125 116.75 C-102.125 118.07 -102.125 119.39 -102.125 120.75 C-78.84743842 117.50842975 -56.83534214 109.35562298 -35.9074707 98.82080078 C-22.50943803 92.23754506 -8.54793862 92.65568659 5.875 95.75 C9.02895291 96.84468636 11.93582742 98.17588247 14.875 99.75 C16.20740354 100.41852303 17.54048254 101.08570686 18.875 101.75 C17.15998986 112.10775862 17.15998986 112.10775862 12.875 115.75 C6.73445947 118.71254149 -0.20426701 119.21328535 -6.875 120.125 C-25.50363744 122.72162536 -41.00950542 130.28899217 -55.125 142.75 C-56.01445312 143.50667969 -56.90390625 144.26335937 -57.8203125 145.04296875 C-67.86829845 153.57563074 -67.86829845 153.57563074 -72.4375 165.375 C-72.31110546 171.21021444 -70.27325187 175.37054613 -66.3828125 179.6796875 C-60.18797632 185.50049584 -52.99599704 189.9725304 -45.89501953 194.58789062 C-43.43910733 196.20032401 -41.02914781 197.87409085 -38.625 199.5625 C-37.84253906 200.10648438 -37.06007813 200.65046875 -36.25390625 201.2109375 C-34.89547681 202.19299475 -33.56528704 203.21623024 -32.27734375 204.2890625 C-28.16633078 207.64155144 -25.24943232 208.25717837 -19.9453125 208.0234375 C-18.10884552 207.93191961 -18.10884552 207.93191961 -17.125 206.75 C-16.55056048 203.90145323 -16.55056048 203.90145323 -17.125 200.75 C-19.09088477 198.87577223 -20.7378029 197.61078504 -23 196.1875 C-24.28619885 195.32707732 -25.571301 194.46501364 -26.85546875 193.6015625 C-27.54560059 193.14555664 -28.23573242 192.68955078 -28.94677734 192.21972656 C-32.81404059 189.61034249 -36.5509713 186.82100716 -40.3125 184.0625 C-46.08232619 179.85458688 -51.86594062 175.87884797 -58.05859375 172.3125 C-61.57917358 169.65043586 -62.92293949 167.04020602 -63.6015625 162.70703125 C-62.96614285 158.76430443 -61.64245579 157.8418862 -58.5 155.4375 C-57.49839844 154.66921875 -56.49679687 153.9009375 -55.46484375 153.109375 C-51.50346224 150.25708602 -47.39951515 147.63088582 -43.24731445 145.06640625 C-39.58614292 142.78474133 -36.39389517 140.31366842 -33.1875 137.4375 C-24.37428072 130.26163164 -12.82480274 129.65100484 -1.9375 128.3125 C12.25022435 126.63541934 12.25022435 126.63541934 23.9375 118.9375 C27.74478041 112.67390964 29.84349191 107.13475082 28.875 99.75 C23.17013662 92.14351549 13.39379923 89.16311496 4.875 85.75 C4.84921875 84.74582031 4.8234375 83.74164063 4.796875 82.70703125 C4.31558112 69.69770571 2.00284965 56.9204662 -6 46.25 C-8.92175294 44.18758616 -10.61518198 44.24859743 -14.125 44.75 C-17.15890978 46.0600974 -18.6987101 46.92473678 -20.22607422 49.8815918 C-21.32938681 53.40218378 -21.58214876 56.79908122 -21.7578125 60.45703125 C-21.82015579 61.54512337 -21.82015579 61.54512337 -21.88375854 62.65519714 C-22.01382902 64.95727091 -22.1320843 67.25977488 -22.25 69.5625 C-22.33645849 71.12960058 -22.42368982 72.69665873 -22.51171875 74.26367188 C-22.72509526 78.09201457 -22.92788253 81.92078711 -23.125 85.75 C-23.73883545 85.83854248 -24.3526709 85.92708496 -24.98510742 86.01831055 C-31.58134162 87.12954023 -36.65942145 89.26358658 -42.4375 92.5625 C-48.9981958 96.16752618 -55.39129397 99.26510941 -62.44921875 101.78515625 C-64.7719364 102.62269093 -66.95885607 103.56932656 -69.1875 104.625 C-72.32414811 105.82626949 -73.07422309 105.70787834 -76.125 104.75 C-75.40521973 104.45649658 -74.68543945 104.16299316 -73.94384766 103.8605957 C-65.26084003 100.2859393 -56.75080518 96.39270842 -48.24609375 92.41601562 C-47.22386719 91.94228516 -46.20164062 91.46855469 -45.1484375 90.98046875 C-44.22981934 90.55145264 -43.31120117 90.12243652 -42.36474609 89.68041992 C-40.125 88.75 -40.125 88.75 -38.125 88.75 C-38.125 87.76 -38.125 86.77 -38.125 85.75 C-39.17397461 85.98771118 -39.17397461 85.98771118 -40.24414062 86.23022461 C-43.26991451 86.77614602 -46.14649998 86.95966574 -49.21875 87.06640625 C-50.4042041 87.10870361 -51.5896582 87.15100098 -52.81103516 87.19458008 C-58.01151802 87.35536828 -63.21192289 87.51307474 -68.41308594 87.65039062 C-70.72903546 87.71253923 -73.04484428 87.78054116 -75.36035156 87.85742188 C-91.34530683 88.37425646 -102.71458596 86.89364132 -115.125 75.75 C-122.72140143 67.16343626 -124.73693119 57.39174724 -124.48046875 46.15625 C-123.37632829 35.57591502 -117.25216905 26.40091463 -109.125 19.75 C-97.52227274 12.33985486 -85.13104326 12.42930025 -71.76171875 12.18359375 C-70.60800781 12.15394531 -69.45429688 12.12429687 -68.265625 12.09375 C-67.22954102 12.07505859 -66.19345703 12.05636719 -65.12597656 12.03710938 C-60.30300626 11.57568625 -56.14870423 9.794535 -51.75390625 7.859375 C-45.41817744 5.30279044 -38.85170896 3.88090622 -32.19311523 2.45751953 C-30.05980095 1.99942042 -27.93141195 1.52209861 -25.80273438 1.04296875 C-8.61429138 -2.74489285 -8.61429138 -2.74489285 0 0 Z " fill="#FDC719" transform="translate(375.125,86.25)"/>
<path d="M0 0 C0.91981659 0.01119873 1.83963318 0.02239746 2.787323 0.03393555 C49.12801185 0.60082486 49.12801185 0.60082486 65.62109375 14.33984375 C70.06655973 17.282617 76.45702158 16.34138621 81.5625 15.625 C85.0782491 14.77608726 88.49019246 13.66201004 91.87988281 12.40429688 C96.73153657 10.64779304 100.47680853 10.27444863 105.5625 10.625 C108.125 12.1875 108.125 12.1875 109.5625 14.625 C109.3125 18.375 109.3125 18.375 108.5625 21.625 C105.99561354 22.48062882 104.11660043 22.83467666 101.46484375 23.0546875 C85.64565114 24.04814471 85.64565114 24.04814471 71.5625 30.625 C71.2325 31.615 70.9025 32.605 70.5625 33.625 C76.97581693 35.33793679 82.952006 36.84204434 89.625 36.5625 C94.2506259 36.40741342 94.2506259 36.40741342 97.25 38.5 C98.5625 40.625 98.5625 40.625 98.5625 42.625 C99.67625 42.46 100.79 42.295 101.9375 42.125 C107.76811863 41.39747183 113.93603877 40.74951292 119.5625 42.625 C119.8925 45.595 120.2225 48.565 120.5625 51.625 C116.2725 50.965 111.9825 50.305 107.5625 49.625 C109.12237606 53.78466949 110.64741026 56.83007077 113.5625 60.1875 C119.79174909 68.23618323 119.72588947 79.62097 120.80053711 89.4206543 C121.97855032 100.7788923 121.97855032 100.7788923 126.9375 110.8125 C132.15732564 114.41666532 138.38356427 114.18394978 144.5625 113.625 C147.76780666 112.35623278 149.04210435 111.52884507 150.75 108.5625 C153.26917956 99.45469696 154.09618457 90.41257833 154.6875 81 C154.81705078 79.06447266 154.81705078 79.06447266 154.94921875 77.08984375 C155.15952605 73.93523419 155.36381268 70.78035909 155.5625 67.625 C154.32161621 67.64856567 154.32161621 67.64856567 153.05566406 67.67260742 C149.30801223 67.73496304 145.56046955 67.77399346 141.8125 67.8125 C139.85957031 67.85020508 139.85957031 67.85020508 137.8671875 67.88867188 C135.99160156 67.90317383 135.99160156 67.90317383 134.078125 67.91796875 C132.92602539 67.9336792 131.77392578 67.94938965 130.58691406 67.96557617 C127.29491214 67.5948672 125.95554923 66.85115202 123.5625 64.625 C123.97026863 61.70265813 124.33529501 59.11698618 125.578125 56.42578125 C126.85555039 52.79120187 126.85465877 49.30604753 126.9375 45.5 C127.35427956 35.47473282 129.26884791 26.91865209 136.5625 19.625 C139.66298928 18.07475536 142.14144218 18.33507985 145.5625 18.625 C151.61189411 22.65177227 153.78244705 27.7264012 155.5625 34.625 C155.82373596 37.91574156 155.84840784 41.20003973 155.875 44.5 C155.80104842 50.68485576 155.80104842 50.68485576 158.35546875 56.10546875 C160.37421393 57.55253388 162.31766477 58.58482851 164.5625 59.625 C170.72581401 71.95162802 163.54062151 94.18801576 161.18164062 107.19335938 C160.79126461 109.35705233 160.42234826 111.52483139 160.08398438 113.69726562 C159.93509766 114.59123047 159.78621094 115.48519531 159.6328125 116.40625 C159.51437988 117.17001953 159.39594727 117.93378906 159.27392578 118.72070312 C158.33606473 121.23110676 157.14015364 121.88257177 154.8125 123.125 C153.40749706 123.65689397 151.99093244 124.15967731 150.5625 124.625 C149.655 125.0375 148.7475 125.45 147.8125 125.875 C138.9918031 127.91054544 130.42081345 127.2878736 122.5625 122.625 C120.63431787 121.01884417 118.96527479 119.34329522 117.28515625 117.48046875 C115.44224958 115.49547857 113.46873748 113.84086221 111.375 112.125 C107.82934985 109.02937468 105.46172054 105.93415584 103.5625 101.625 C103.15257812 100.72265625 102.74265625 99.8203125 102.3203125 98.890625 C98.58237436 89.99919819 96.95873811 81.10352698 95.5625 71.625 C81.52891373 72.07222418 67.52647562 72.89838511 53.52044678 73.86727905 C51.64157813 73.99675361 49.76254852 74.12391446 47.88336182 74.24868774 C45.19513156 74.42821048 42.50771683 74.61714519 39.8203125 74.80859375 C39.02093262 74.86073029 38.22155273 74.91286682 37.39794922 74.96658325 C30.19571019 75.49931507 23.24147491 76.60129319 16.6875 79.75 C9.15255185 82.86911807 1.35017632 82.6346158 -6.24609375 79.7265625 C-15.51675084 75.0664461 -21.95561435 67.79142443 -25.8125 58.25 C-29.05118205 48.35705106 -27.62406702 40.06427844 -23.4375 30.625 C-19.71104792 23.85564622 -15.00634881 20.25735198 -7.62011719 18.09228516 C-3.41281149 17.19152642 0.90162181 17.44034587 5.1875 17.4375 C6.13496094 17.42525391 7.08242187 17.41300781 8.05859375 17.40039062 C14.45600874 17.38726323 20.34442282 18.12610541 26.5625 19.625 C26.2325 20.945 25.9025 22.265 25.5625 23.625 C26.32949219 23.70492188 27.09648437 23.78484375 27.88671875 23.8671875 C30.5625 24.625 30.5625 24.625 32.14453125 26.4453125 C34.8298878 31.47502794 36.17020913 34.9125342 35.5625 40.625 C41.78746469 39.13783511 41.78746469 39.13783511 46.5625 35.1875 C48.53422071 30.13496568 49.56901533 25.02630008 48.5625 19.625 C39.39746688 10.45996688 20.74240786 10.37717684 8.69726562 10.3515625 C6.86711914 10.36316406 6.86711914 10.36316406 5 10.375 C3.16405273 10.36339844 3.16405273 10.36339844 1.29101562 10.3515625 C-9.18460489 10.37386292 -19.04438342 11.39732111 -28.875 15.125 C-30.00808594 15.5478125 -31.14117187 15.970625 -32.30859375 16.40625 C-35.02455651 17.4641531 -37.73475899 18.53379989 -40.4375 19.625 C-40.4375 20.285 -40.4375 20.945 -40.4375 21.625 C-39.3546875 21.7178125 -39.3546875 21.7178125 -38.25 21.8125 C-34.30360778 22.95256886 -32.83124609 24.27375547 -30.4375 27.625 C-29.72468767 31.09782169 -29.73914738 34.15040948 -30.4375 37.625 C-35.36626461 44.86412301 -44.56832892 46.01160453 -52.60546875 47.78125 C-55.5902068 48.67049609 -57.80881115 49.98040715 -60.4375 51.625 C-61.38625 51.851875 -62.335 52.07875 -63.3125 52.3125 C-67.99574274 54.27946195 -70.32772079 57.72034449 -73.4375 61.625 C-74.01242188 62.223125 -74.58734375 62.82125 -75.1796875 63.4375 C-79.8288528 68.59829593 -79.96225985 73.06000719 -80.1796875 79.84375 C-81.26269502 95.7278603 -88.39164125 116.50337593 -100.4375 127.625 C-104.02920921 129.9947024 -108.00718913 130.26796037 -112.1875 130.75 C-112.88488281 130.83636719 -113.58226563 130.92273438 -114.30078125 131.01171875 C-116.01222332 131.22271846 -117.72476629 131.42475501 -119.4375 131.625 C-119.9325 130.635 -119.9325 130.635 -120.4375 129.625 C-121.66432757 128.9943877 -122.91962021 128.41837705 -124.1875 127.875 C-132.25888108 123.91844064 -135.46682024 116.77140016 -138.4375 108.625 C-141.44745139 99.43925194 -141.93586725 89.82024306 -142.23886108 80.2171936 C-142.3112612 78.22164466 -142.43413594 76.22813261 -142.55786133 74.23510742 C-142.70258304 64.98065999 -142.70258304 64.98065999 -138.96191406 60.97216797 C-136.19990815 58.9625829 -133.43988272 57.24652378 -130.4375 55.625 C-128.58149413 53.76899413 -129.21740651 50.55219532 -129.125 48.0625 C-128.62288685 40.46900414 -127.4451677 35.4178343 -121.8125 30.1875 C-117.74247763 27.50985371 -115.35339855 27.3832345 -110.4375 27.625 C-103.9481383 29.1143617 -103.9481383 29.1143617 -101.4375 31.625 C-98.28039177 41.3691612 -99.71518909 48.28598782 -103.4375 57.625 C-102.344375 57.398125 -101.25125 57.17125 -100.125 56.9375 C-96.4375 56.625 -96.4375 56.625 -94.4375 57.75 C-93.05405266 60.34396376 -93.62035536 61.87642257 -94.4375 64.625 C-99.30893359 66.18232874 -103.52810428 66.90630311 -108.68359375 67.0390625 C-109.33957047 67.05842865 -109.99554718 67.0777948 -110.67140198 67.0977478 C-112.73914128 67.15688909 -114.80693829 67.20366229 -116.875 67.25 C-118.28843394 67.28824033 -119.70184609 67.32729545 -121.11523438 67.3671875 C-124.55578852 67.46253452 -127.99650839 67.54680287 -131.4375 67.625 C-131.27894531 68.70136719 -131.12039062 69.77773438 -130.95703125 70.88671875 C-130.52139705 74.35577079 -130.33850063 77.77449022 -130.26171875 81.26953125 C-130.23787109 82.27693359 -130.21402344 83.28433594 -130.18945312 84.32226562 C-130.14673108 86.38716432 -130.1153472 88.45233095 -130.09570312 90.51757812 C-129.89297497 97.9147986 -128.29313147 103.82601061 -125.4375 110.625 C-125.17864014 111.33769043 -124.91978027 112.05038086 -124.65307617 112.78466797 C-123.69143397 115.34182912 -122.85210955 117.27181409 -120.75 119.0625 C-115.4830896 120.34364037 -111.16729167 120.3741962 -106.3125 117.9375 C-96.03043298 110.48447487 -94.75069582 94.7396665 -92.8046875 83.17773438 C-91.33303428 75.18936388 -89.1691832 69.23748101 -84.4375 62.625 C-83.68984375 61.55507813 -82.9421875 60.48515625 -82.171875 59.3828125 C-81.51703125 58.51398438 -80.8621875 57.64515625 -80.1875 56.75 C-77.96098878 53.78994827 -75.97597085 51.00021665 -74.4375 47.625 C-74.7675 47.295 -75.0975 46.965 -75.4375 46.625 C-75.47813832 44.95882885 -75.480221 43.29111905 -75.4375 41.625 C-71.09014926 39.30641294 -68.13038934 38.46765844 -63.1875 38.6875 C-57.78955092 38.87363618 -53.78548262 37.59439469 -48.84765625 35.5 C-46.4375 34.625 -46.4375 34.625 -42.4375 34.625 C-43.09604248 31.52711173 -43.09604248 31.52711173 -45.3984375 30.52734375 C-46.19507813 30.20894531 -46.99171875 29.89054687 -47.8125 29.5625 C-50.65499291 28.40976265 -52.85815555 27.34456297 -55.4375 25.625 C-58.18542637 25.41372261 -58.18542637 25.41372261 -61.27734375 25.5703125 C-62.42267578 25.59480469 -63.56800781 25.61929687 -64.74804688 25.64453125 C-67.16235265 25.71473723 -69.57644198 25.7928391 -71.99023438 25.87890625 C-73.13685547 25.90082031 -74.28347656 25.92273438 -75.46484375 25.9453125 C-76.51406006 25.97898926 -77.56327637 26.01266602 -78.64428711 26.04736328 C-82.16147687 25.51552705 -83.30567191 24.41821135 -85.4375 21.625 C-85.6875 18.875 -85.6875 18.875 -85.4375 16.625 C-84.7775 16.625 -84.1175 16.625 -83.4375 16.625 C-83.4375 15.965 -83.4375 15.305 -83.4375 14.625 C-81.51550781 14.73328125 -81.51550781 14.73328125 -79.5546875 14.84375 C-75.9604086 15.0424445 -72.36594715 15.21226497 -68.76953125 15.3671875 C-65.64922902 15.50282884 -62.5561816 15.69250792 -59.44921875 16.0078125 C-50.83497862 16.61266288 -46.73869145 14.35242949 -39.99658203 9.12109375 C-27.85881518 0.23432432 -14.43200275 -0.31102683 0 0 Z " fill="#171611" transform="translate(233.4375,281.375)"/>
<path d="M0 0 C3 2 3 2 3.65625 4.26171875 C2.59124517 8.7055782 -0.85727959 10.32585494 -4.5 12.8125 C-5.98370029 13.87571318 -7.46420924 14.94339471 -8.94140625 16.015625 C-9.65055176 16.52931641 -10.35969727 17.04300781 -11.09033203 17.57226562 C-17.70780344 22.51971804 -22.72792589 28.94880583 -27.82421875 35.38671875 C-30 38 -30 38 -32.76953125 40.58203125 C-35.45202231 42.9417516 -35.45202231 42.9417516 -35 47 C-32.36 47.33 -29.72 47.66 -27 48 C-27.0928125 49.6396875 -27.0928125 49.6396875 -27.1875 51.3125 C-27.32461304 54.83312941 -27.32461304 54.83312941 -25.84887695 56.72094727 C-23.22841386 58.53378315 -21.39175262 58.27804728 -18.23046875 58.15234375 C-17.09416016 58.12462891 -15.95785156 58.09691406 -14.78710938 58.06835938 C-12.39892734 57.98153995 -10.01089698 57.89043588 -7.62304688 57.79492188 C-0.97207038 57.64077262 2.91762599 57.57447562 8 62 C10.03454561 63.0405375 10.03454561 63.0405375 11.875 63.75 C12.90625 64.1625 13.9375 64.575 15 65 C15 65.99 15 66.98 15 68 C6.97057148 71.03406206 0.02790222 73.52383565 -8.6796875 73.04296875 C-11.74098648 72.98627803 -14.20888219 73.79303014 -17 75 C-17 75.7425 -17 76.485 -17 77.25 C-17 84.46153846 -17 84.46153846 -20.0625 88.0625 C-28.83800223 98.98746735 -33.46075484 109.15545611 -35.66015625 123.0234375 C-37.26777142 133.11521433 -39.49821319 143.42118817 -46.953125 150.98046875 C-51.54982505 154.21082686 -55.49468599 154.72200839 -61 154 C-65.18820835 152.18661549 -66.78200288 150.16055296 -68.5234375 145.95507812 C-68.76320313 145.33052734 -69.00296875 144.70597656 -69.25 144.0625 C-69.50523438 143.44181641 -69.76046875 142.82113281 -70.0234375 142.18164062 C-72.32426109 136.49618444 -73.16606518 131.72031593 -73.31640625 125.609375 C-73.33718735 124.90476135 -73.35796844 124.20014771 -73.37937927 123.47418213 C-73.44453837 121.23288319 -73.50360248 118.99147136 -73.5625 116.75 C-73.60571726 115.22655103 -73.64933257 113.70311329 -73.69335938 112.1796875 C-73.80018491 108.45324409 -73.90154639 104.72667506 -74 101 C-66.54284882 100.08114532 -59.14764625 99.70227035 -51.640625 99.48242188 C-46.42445879 99.28092274 -41.95056052 98.67505267 -37 97 C-37.33 95.35 -37.66 93.7 -38 92 C-40.76264289 91.40267181 -43.16032769 91 -46 91 C-45.24496462 84.45636001 -45.24496462 84.45636001 -43.9453125 82.03515625 C-42.26021078 78.40731329 -43.34281474 74.82713769 -44 71 C-44.309375 69.0509375 -44.309375 69.0509375 -44.625 67.0625 C-45.72866441 63.69836772 -45.72866441 63.69836772 -49.1875 62.5625 C-56.36215647 61.47331518 -56.36215647 61.47331518 -63.1875 63.5 C-66.76657494 66.68139995 -68.6990543 69.37204564 -70 74 C-70.12751189 76.35218746 -70.2074502 78.70724319 -70.25 81.0625 C-70.51115797 87.31020212 -70.51115797 87.31020212 -72.69140625 90.38671875 C-75.89338988 93.199511 -79.19650629 95.12136336 -83 97 C-84.10305149 127.79378507 -84.10305149 127.79378507 -73 156 C-69.60346773 159.08057578 -66.15271773 161.06850338 -62 163 C-62 163.66 -62 164.32 -62 165 C-59.83652209 164.52924323 -57.67508324 164.05143394 -55.515625 163.5625 C-53.94652374 163.21164506 -52.37392924 162.87567389 -50.796875 162.5625 C-45.1493471 161.3553948 -41.89633002 159.67717179 -38.5390625 154.9375 C-31.35600005 143.56127927 -23.85684613 127.61941431 -24.04296875 113.8125 C-24.10550123 102.60667916 -19.36518551 96.81201036 -12 89 C-11.29230469 88.23042969 -10.58460938 87.46085937 -9.85546875 86.66796875 C-7.20849854 84.28848185 -4.41460411 83.88308727 -1 83 C-0.09121094 82.52691406 0.81757813 82.05382812 1.75390625 81.56640625 C6.46599265 79.29258357 11.3735669 78.28735543 16.44140625 77.0625 C19.76072091 76.07144227 22.19428646 75.00632029 25 73 C26.86794584 69.26410832 26.68891597 65.0569496 26 61 C23.6938185 57.75966903 20.75121311 56.25040437 17 55 C17 54.34 17 53.68 17 53 C25.1515196 48.46158639 32.82273256 45.65667555 42 44 C42.92216309 43.82799072 43.84432617 43.65598145 44.79443359 43.47875977 C62.94364594 40.76812721 89.10319184 40.24836413 105 51 C107.36281649 53.36281649 107.29567658 53.90611822 107.3125 57.125 C107.17758754 62.70138159 106.0542271 67.72567714 102.25 71.9375 C99.21829894 73.36913661 96.31730721 73.68102815 93 74 C92.90203125 73.43152344 92.8040625 72.86304688 92.703125 72.27734375 C91.64003842 66.7877846 90.24880016 62.5865414 87 58 C84.88658874 56.96474868 84.88658874 56.96474868 83 57 C83.33 55.68 83.66 54.36 84 53 C76.96812967 52.17912197 70.0157293 51.78946051 62.9375 51.75 C62.00873047 51.729375 61.07996094 51.70875 60.12304688 51.6875 C52.70669826 51.64586436 46.04888127 52.49314206 40.1875 57.3125 C33.87920189 65.06269482 30.22190473 73.13465228 30.58984375 83.29296875 C32.27272223 94.39996673 37.56673742 102.37594674 45.9375 109.5 C46.618125 109.995 47.29875 110.49 48 111 C46.32657223 112.67342777 44.23470797 112.23758121 41.93286133 112.33789062 C40.85116165 112.38884888 39.76946198 112.43980713 38.65498352 112.49230957 C37.47590927 112.54640991 36.29683502 112.60051025 35.08203125 112.65625 C32.60598885 112.79190145 30.13007954 112.93000037 27.65429688 113.0703125 C23.73532735 113.29118247 19.81789209 113.49977008 15.89624023 113.66699219 C12.12152459 113.83190811 8.35329218 114.05159959 4.58203125 114.28125 C3.41307816 114.31915649 2.24412506 114.35706299 1.03974915 114.39611816 C-5.09960785 114.74093434 -5.09960785 114.74093434 -10.06404114 118.0091095 C-12.75229763 121.96659007 -14.71335639 126.17962604 -16.3125 130.6875 C-19.26333344 138.11676877 -23.42976502 144.4824475 -28 151 C-28.56589844 151.80953125 -29.13179688 152.6190625 -29.71484375 153.453125 C-35.65705883 161.06613406 -44.99198636 165.37398355 -54.4453125 166.80859375 C-65.71775266 167.65316495 -74.62342545 164.97566045 -83.578125 157.98828125 C-90.24608106 151.83918932 -95.66719501 143.16076217 -96.16796875 133.890625 C-96.23250893 121.86033593 -96.23250893 121.86033593 -94 116 C-94.66 115.814375 -95.32 115.62875 -96 115.4375 C-103.47710471 111.85472066 -109.7236098 105.35135278 -112.96875 97.72265625 C-115.10945068 91.44921398 -115.3378777 85.58235809 -115 79 C-116.27875 78.938125 -117.5575 78.87625 -118.875 78.8125 C-124.49216545 78.19826162 -129.28563465 76.08349794 -134 73 C-136.56205842 69.15691236 -136.67366765 67.5659696 -136 63 C-129.98551767 52.98230918 -118.96823348 48.2215863 -108.07861328 45.48974609 C-103.77632892 44.47607656 -99.4584729 43.55757864 -95.125 42.6875 C-94.23321045 42.50364746 -93.3414209 42.31979492 -92.42260742 42.13037109 C-86.05782473 40.92297916 -80.64384297 40.23743802 -75 44 C-72.25151961 44.17141685 -69.6197677 44.23760852 -66.875 44.1875 C-66.10671875 44.17380371 -65.3384375 44.16010742 -64.546875 44.14599609 C-63.03341455 44.1142519 -61.52004711 44.07762308 -60.00683594 44.03564453 C-58.40299486 44.00715782 -56.79791352 44.05190067 -55.1953125 44.12109375 C-51.53546095 44.12760594 -49.70064032 43.61898675 -46.921875 41.1640625 C-44.53110442 38.5066952 -42.27557526 35.7565328 -40 33 C-29.73586551 21.50180471 -17.51494442 11.19358334 -3.9921875 3.72265625 C-0.93436803 2.32874587 -0.93436803 2.32874587 0 0 Z " fill="#FCC61A" transform="translate(176,248)"/>
<path d="M0 0 C23.66200564 -1.00191463 23.66200564 -1.00191463 33.06201172 6.13964844 C33.89732422 6.74292969 34.73263672 7.34621094 35.59326172 7.96777344 C42.66058714 13.61245543 46.38999029 20.31478535 48.06201172 29.13964844 C46.8720459 28.85814941 45.68208008 28.57665039 44.45605469 28.28662109 C32.54460588 25.60696673 21.13989564 24.44935673 8.93847656 24.50830078 C6.13831984 24.51476077 3.34213963 24.46696011 0.54248047 24.41699219 C-1.26089972 24.41245702 -3.06429106 24.41103416 -4.86767578 24.41308594 C-5.69266571 24.39466644 -6.51765564 24.37624695 -7.36764526 24.35726929 C-11.85870602 24.42137545 -11.85870602 24.42137545 -15.71661377 26.5088501 C-17.16231438 28.01638096 -18.55339673 29.57580516 -19.93798828 31.13964844 C-23.23883446 31.57560925 -25.9421405 31.30933679 -29.20751953 30.75292969 C-34.13071705 29.95360433 -34.13071705 29.95360433 -38.75048828 31.57714844 C-41.13790041 34.37383122 -42.58125539 37.07888661 -44.04345703 40.43261719 C-44.93798828 42.13964844 -44.93798828 42.13964844 -46.93798828 43.13964844 C-47.85284402 45.94443039 -47.85284402 45.94443039 -48.56298828 49.20214844 C-48.95357422 50.85923828 -48.95357422 50.85923828 -49.35205078 52.54980469 C-49.54541016 53.40445313 -49.73876953 54.25910156 -49.93798828 55.13964844 C-50.59798828 55.13964844 -51.25798828 55.13964844 -51.93798828 55.13964844 C-51.93798828 54.14964844 -51.93798828 53.15964844 -51.93798828 52.13964844 C-52.92798828 52.63464844 -52.92798828 52.63464844 -53.93798828 53.13964844 C-61.87867395 53.73172889 -69.56531706 52.65049846 -77.37548828 51.32714844 C-78.41769531 51.16150391 -79.45990234 50.99585938 -80.53369141 50.82519531 C-103.89101479 46.98781732 -103.89101479 46.98781732 -109.93798828 41.13964844 C-110.89501953 39.29199219 -110.89501953 39.29199219 -110.93798828 37.13964844 C-108.09219482 32.2186383 -104.28653633 30.52027294 -99.25048828 28.45214844 C-98.58082031 28.15759766 -97.91115234 27.86304688 -97.22119141 27.55957031 C-88.98365653 24.0584213 -80.99809247 22.84658619 -72.09033203 22.72558594 C-71.19302872 22.70621979 -70.2957254 22.68685364 -69.37123108 22.66690063 C-66.53940982 22.60770138 -63.70754657 22.56096095 -60.87548828 22.51464844 C-58.94122695 22.4764136 -57.00698165 22.43735878 -55.07275391 22.39746094 C-50.36129739 22.30204986 -45.64976137 22.21780205 -40.93798828 22.13964844 C-41.5507644 19.17789721 -42.1917135 17.75906061 -43.93798828 15.13964844 C-46.87848279 14.82226173 -49.5586339 14.71612068 -52.50048828 14.76464844 C-53.81569458 14.7777002 -53.81569458 14.7777002 -55.1574707 14.79101562 C-74.83909448 15.21032203 -99.25152529 16.55182692 -115.93798828 28.13964844 C-118.53709846 31.69572947 -119.61480232 34.52869084 -119.40283203 39.02246094 C-118.28420681 44.1173758 -115.02834057 47.67211992 -110.84033203 50.61230469 C-93.35011696 60.16038537 -67.1661438 63.18309907 -47.93798828 58.13964844 C-49.37249016 61.69905418 -51.01357156 63.13765625 -54.25048828 65.13964844 C-55.05486328 65.65914063 -55.85923828 66.17863281 -56.68798828 66.71386719 C-57.43048828 67.184375 -58.17298828 67.65488281 -58.93798828 68.13964844 C-64.04807526 71.4328156 -66.34235031 75.35001121 -67.93798828 81.13964844 C-68.23812252 84.83654004 -68.18684373 88.44138 -67.93798828 92.13964844 C-71.2555619 87.16328801 -72.05338111 83.04940972 -71.93798828 77.13964844 C-72.53774475 77.14631027 -73.13750122 77.15297211 -73.75543213 77.15983582 C-80.05060413 77.22668937 -86.34567374 77.27165461 -92.64111328 77.30444336 C-94.98425398 77.31944281 -97.32736702 77.33984903 -99.67041016 77.3659668 C-103.0565477 77.40274129 -106.44231106 77.4194638 -109.82861328 77.43261719 C-110.86036682 77.44810104 -111.89212036 77.4635849 -112.95513916 77.47953796 C-125.27080458 77.48232824 -136.64219822 74.76570777 -145.93798828 66.32324219 C-154.48205568 57.2083427 -157.56333157 47.37893722 -157.27001953 35.09667969 C-156.37380461 24.41590652 -150.9416167 16.06137316 -142.93798828 9.13964844 C-136.04450526 4.55953996 -130.32332091 2.00054133 -122.04418945 2.04199219 C-120.84766251 2.04525009 -119.65113556 2.048508 -118.41835022 2.05186462 C-117.11901047 2.06020828 -115.81967072 2.06855194 -114.48095703 2.07714844 C-113.11254561 2.08195051 -111.74413205 2.08617567 -110.37571716 2.08985901 C-107.46825861 2.09819894 -104.56082428 2.10895594 -101.65338135 2.12161255 C-94.10374885 2.15330583 -86.55408724 2.16301013 -79.00439453 2.16699219 C-78.25924843 2.16741957 -77.51410233 2.16784695 -76.74637604 2.16828728 C-64.34781455 2.17183972 -51.95702116 2.05333879 -39.56298828 1.70214844 C-38.78401184 1.68008331 -38.0050354 1.65801819 -37.20245361 1.63528442 C-28.79605659 1.38853502 -20.39770149 1.04110172 -12.00048828 0.57714844 C-8.0010562 0.36789104 -4.00036034 0.1901451 0 0 Z " fill="#FDC71B" transform="translate(165.93798828125,108.8603515625)"/>
<path d="M0 0 C2.36281649 2.36281649 2.29567658 2.90611822 2.3125 6.125 C2.17758754 11.70138159 1.0542271 16.72567714 -2.75 20.9375 C-5.78170106 22.36913661 -8.68269279 22.68102815 -12 23 C-12.09796875 22.43152344 -12.1959375 21.86304688 -12.296875 21.27734375 C-13.35996158 15.7877846 -14.75119984 11.5865414 -18 7 C-20.11341126 5.96474868 -20.11341126 5.96474868 -22 6 C-21.67 4.68 -21.34 3.36 -21 2 C-28.03187033 1.17912197 -34.9842707 0.78946051 -42.0625 0.75 C-42.99126953 0.729375 -43.92003906 0.70875 -44.87695312 0.6875 C-52.29330174 0.64586436 -58.95111873 1.49314206 -64.8125 6.3125 C-71.12079811 14.06269482 -74.77809527 22.13465228 -74.41015625 32.29296875 C-72.72727777 43.39996673 -67.43326258 51.37594674 -59.0625 58.5 C-58.381875 58.995 -57.70125 59.49 -57 60 C-58.67342777 61.67342777 -60.76529203 61.23758121 -63.06713867 61.33789062 C-64.14883835 61.38884888 -65.23053802 61.43980713 -66.34501648 61.49230957 C-67.52409073 61.54640991 -68.70316498 61.60051025 -69.91796875 61.65625 C-72.39401115 61.79190145 -74.86992046 61.93000037 -77.34570312 62.0703125 C-81.26467265 62.29118247 -85.18210791 62.49977008 -89.10375977 62.66699219 C-92.87847541 62.83190811 -96.64670782 63.05159959 -100.41796875 63.28125 C-101.58692184 63.31915649 -102.75587494 63.35706299 -103.96025085 63.39611816 C-110.09960785 63.74093434 -110.09960785 63.74093434 -115.06404114 67.0091095 C-117.75229763 70.96659007 -119.71335639 75.17962604 -121.3125 79.6875 C-124.26333344 87.11676877 -128.42976502 93.4824475 -133 100 C-133.56589844 100.80953125 -134.13179687 101.6190625 -134.71484375 102.453125 C-139.85981122 109.04472146 -147.18311131 112.39437044 -155 115 C-157.33299825 115.03954234 -159.66708189 115.04401732 -162 115 C-161.505 114.01 -161.505 114.01 -161 113 C-159.26984651 112.47166454 -157.51403917 112.02591799 -155.75 111.625 C-148.90146208 109.81345126 -145.79026398 107.46704027 -142 101.5 C-135.69474471 90.49416878 -128.86777342 75.80880793 -129.04296875 62.8125 C-129.10550123 51.60667916 -124.36518551 45.81201036 -117 38 C-116.29230469 37.23042969 -115.58460938 36.46085937 -114.85546875 35.66796875 C-112.20849854 33.28848185 -109.41460411 32.88308727 -106 32 C-105.09121094 31.52691406 -104.18242187 31.05382812 -103.24609375 30.56640625 C-98.53400735 28.29258357 -93.6264331 27.28735543 -88.55859375 26.0625 C-85.23927909 25.07144227 -82.80571354 24.00632029 -80 22 C-78.13205416 18.26410832 -78.31108403 14.0569496 -79 10 C-81.3061815 6.75966903 -84.24878689 5.25040437 -88 4 C-88 3.34 -88 2.68 -88 2 C-79.8484804 -2.53841361 -72.17726744 -5.34332445 -63 -7 C-62.07783691 -7.17200928 -61.15567383 -7.34401855 -60.20556641 -7.52124023 C-42.05635406 -10.23187279 -15.89680816 -10.75163587 0 0 Z " fill="#FBC61A" transform="translate(281,299)"/>
<path d="M0 0 C1.50811249 0.00031723 1.50811249 0.00031723 3.04669189 0.00064087 C25.99597509 0.04860817 50.56288979 0.45320744 72.0625 9.375 C73.03703125 9.76558594 74.0115625 10.15617187 75.015625 10.55859375 C80.49074672 12.99998575 85.19690051 15.94603221 88.0625 21.375 C89.02684822 25.3303345 88.55914618 28.40428247 86.6875 32.0625 C73.56450601 43.6232328 52.78371065 45.49148611 36.05859375 45.73828125 C32.79657498 45.34275616 31.44142303 44.5794299 29.0625 42.375 C29.9375 37.5 29.9375 37.5 31.0625 36.375 C33.26834135 36.21182817 35.47771941 36.09607742 37.6875 36 C48.86904978 35.350766 59.40071378 33.19920468 69.9375 29.4375 C70.63415771 29.19684814 71.33081543 28.95619629 72.04858398 28.70825195 C74.22444381 27.92834869 74.22444381 27.92834869 77.0625 26.375 C78.1152397 24.3042743 78.1152397 24.3042743 78.0625 22.375 C77.19625 22.106875 76.33 21.83875 75.4375 21.5625 C72.0625 20.375 72.0625 20.375 69.28515625 18.92578125 C37.90949101 3.82743083 -16.38238121 6.27100044 -49.07421875 16.3359375 C-53.15028891 17.81511166 -57.07592869 19.40242245 -60.9375 21.375 C-61.9275 21.808125 -62.9175 22.24125 -63.9375 22.6875 C-66.30597198 24.34250917 -66.30597198 24.34250917 -66.75 27.9375 C-66.84877557 29.74838539 -66.9375 31.56142273 -66.9375 33.375 C-62.57476456 34.86487749 -58.18694658 36.18678515 -53.75 37.4375 C-50.45591866 38.36713957 -47.18454998 39.29265001 -43.9375 40.375 C-41.84657249 40.46750781 -39.75311006 40.50668648 -37.66015625 40.515625 C-35.80680664 40.54462891 -35.80680664 40.54462891 -33.91601562 40.57421875 C-31.30940021 40.60802025 -28.70253639 40.62629811 -26.09570312 40.62890625 C-24.85884766 40.65339844 -23.62199219 40.67789063 -22.34765625 40.703125 C-20.64814819 40.71714355 -20.64814819 40.71714355 -18.91430664 40.73144531 C-15.9375 41.375 -15.9375 41.375 -13.47436523 43.66699219 C-11.9375 46.375 -11.9375 46.375 -12.1875 48.6875 C-12.435 49.244375 -12.6825 49.80125 -12.9375 50.375 C-59.89784167 51.26926432 -59.89784167 51.26926432 -74.5625 39.8125 C-77.87231247 36.4155872 -78.77871122 34.77763424 -79.3125 30.0625 C-78.57697064 22.8297946 -74.68028537 18.45213111 -69.234375 14 C-62.39037247 9.1579846 -54.69082857 6.86255344 -46.6875 4.6875 C-45.95039795 4.48495605 -45.2132959 4.28241211 -44.45385742 4.07373047 C-29.76500726 0.30526329 -15.06435296 -0.02923105 0 0 Z " fill="#171511" transform="translate(360.9375,108.625)"/>
<path d="M0 0 C6.45773666 -0.21222609 12.40962234 0.55504837 18.75 1.75 C19.68199219 1.90726563 20.61398438 2.06453125 21.57421875 2.2265625 C29.91664609 3.7825389 29.91664609 3.7825389 33 8 C31.43979133 8.65134925 29.87671421 9.29582964 28.3125 9.9375 C27.44238281 10.29714844 26.57226562 10.65679687 25.67578125 11.02734375 C21.00906631 12.72371166 16.65178233 13.13741649 11.703125 13.24609375 C9.89328125 13.29540039 9.89328125 13.29540039 8.046875 13.34570312 C5.53133279 13.40652128 3.01570379 13.46385737 0.5 13.51757812 C-11.07972151 13.29868766 -11.07972151 13.29868766 -21 18 C-21.64767793 20.57061311 -21.64767793 20.57061311 -22 23 C-16.34408826 23.0497947 -10.68830687 23.08590496 -5.03222656 23.10986328 C-3.11195652 23.11986133 -1.19170147 23.13346421 0.72851562 23.15087891 C3.50394411 23.17540192 6.27916965 23.18654531 9.0546875 23.1953125 C9.8998996 23.20563507 10.74511169 23.21595764 11.61593628 23.22659302 C19.01309366 23.22795558 25.85716289 21.81358262 33 20 C31.69891569 24.87549176 29.82914252 27.7234779 26.375 31.375 C25.55773437 32.24898437 24.74046875 33.12296875 23.8984375 34.0234375 C23.27195313 34.67570312 22.64546875 35.32796875 22 36 C35.5510867 41.98908017 49.13577123 47.77278766 63 53 C59.87124567 55.08583622 57.62998305 55.71283485 54 56.5625 C50.94244963 57.28567061 47.98151712 58.00616096 45 59 C42.8783532 59.14554833 40.75143294 59.22080412 38.625 59.25 C37.50351563 59.27578125 36.38203125 59.3015625 35.2265625 59.328125 C31.64525861 58.9639246 30.00883552 57.87932059 27 56 C24.22852654 55.50542784 24.22852654 55.50542784 21.25 55.3125 C14.46468798 54.42010069 9.19230012 51.97534766 3.15478516 48.94995117 C-0.67406091 47.04672611 -4.16485476 45.52063649 -8.375 44.625 C-18.06612381 42.38974079 -27.76616676 36.48922216 -36 31 C-35.47731534 28.23723823 -34.89130413 25.6739124 -34 23 C-33.77202438 20.26710707 -33.58331813 17.54957796 -33.4375 14.8125 C-33.39431641 14.06291016 -33.35113281 13.31332031 -33.30664062 12.54101562 C-33.20077315 10.69421625 -33.0999024 8.84713166 -33 7 C-32.05511719 6.87625 -31.11023438 6.7525 -30.13671875 6.625 C-26.45602499 5.89161146 -25.46419785 4.71911487 -23 2 C-19.04732381 0.68244127 -15.13551225 0.44890006 -11.0625 1.5 C-7.72725218 2.30854493 -4.42282 2.057047 -1 2 C-0.67 1.34 -0.34 0.68 0 0 Z " fill="#FBC51A" transform="translate(178,141)"/>
<path d="M0 0 C5.625 -0.25 5.625 -0.25 9 2 C9.265625 5.046875 9.265625 5.046875 9.25 8.75 C9.44876884 14.76578859 9.44876884 14.76578859 12.625 19.5625 C18.29084502 23.41527461 25.48489721 25.10500228 32 27 C32 27.66 32 28.32 32 29 C33.485 28.9690625 33.485 28.9690625 35 28.9375 C39.81842498 29.6578302 42.14120391 32.65864373 45.07421875 36.33203125 C45.70972656 37.21246094 46.34523438 38.09289062 47 39 C47.58394531 39.78761719 48.16789062 40.57523437 48.76953125 41.38671875 C53.6477189 49.32712638 53.9156697 57.52894797 54.33154297 66.6640625 C54.78691039 76.19542509 56.75755464 85.02092054 60 94 C51.25873863 89.76181267 47.2133577 82.30317897 44.00170898 73.51489258 C41.40919753 65.85814669 40.12646809 57.98408964 39 50 C22.06481916 50.53969258 5.19309111 51.72003087 -11.70068359 52.98364258 C-12.5982991 53.05008972 -13.49591461 53.11653687 -14.42073059 53.18499756 C-16.11545234 53.31069296 -17.8100338 53.43830042 -19.50444031 53.56817627 C-23.68145235 53.87787102 -27.80755396 54.06670659 -32 54 C-30.3419447 52.25904194 -28.85999596 50.91199746 -26.8125 49.625 C-24.70263381 48.10367593 -24.70263381 48.10367593 -24.75 45.3125 C-24.8325 44.549375 -24.915 43.78625 -25 43 C-24.38640625 42.98582031 -23.7728125 42.97164063 -23.140625 42.95703125 C-22.08101563 42.48330078 -22.08101563 42.48330078 -21 42 C-20.08321619 39.5324228 -19.38938834 37.22462847 -18.75 34.6875 C-16.72550476 27.68421587 -16.72550476 27.68421587 -14.078125 25.1875 C-12.05886175 24.21582445 -10.16755598 23.55499921 -8 23 C-7.01 22.5875 -6.02 22.175 -5 21.75 C-4.34 21.5025 -3.68 21.255 -3 21 C-3.2475 20.154375 -3.495 19.30875 -3.75 18.4375 C-4.03580214 14.50772058 -3.02218309 13.09915237 -0.92578125 9.87890625 C0.68877747 6.60210143 0.25172038 3.58701539 0 0 Z " fill="#FCC71B" transform="translate(290,303)"/>
<path d="M0 0 C5.97147451 3.60328063 9.33741536 8.36620222 11.18359375 15.0546875 C11.41913657 17.77164655 11.55349452 20.34189601 11.55859375 23.0546875 C11.58308594 23.74046875 11.60757813 24.42625 11.6328125 25.1328125 C11.66224671 30.27398817 10.44278221 33.13105992 7.18359375 37.0546875 C5.21875 38.69921875 5.21875 38.69921875 3.24609375 39.8671875 C2.59769531 40.26550781 1.94929688 40.66382813 1.28125 41.07421875 C-5.27661656 44.1394413 -14.32541636 44.26100517 -21.23046875 42.40625 C-27.54948524 39.55171359 -31.9483977 34.55748625 -34.69140625 28.2421875 C-36.69745627 22.03184102 -36.89579638 15.75068606 -34.19140625 9.7421875 C-27.49258403 -1.97483371 -12.08244325 -4.05541091 0 0 Z " fill="#FAC417" transform="translate(250.81640625,308.9453125)"/>
<path d="M0 0 C3.88886515 3.39241428 4.67396486 5.49814142 5.3125 10.5 C4.81672499 14.54882927 3.57147629 16.45575874 0.9375 19.5625 C-1.4327655 21.12776967 -3.52869953 22.36791754 -6.0625 23.5625 C-7.17625 24.09875 -8.29 24.635 -9.4375 25.1875 C-22.10905401 29.99395152 -35.27277398 30.23911896 -48.5625 28.625 C-49.64156616 28.49484497 -49.64156616 28.49484497 -50.74243164 28.36206055 C-55.93653741 27.68846259 -55.93653741 27.68846259 -57.0625 26.5625 C-57.375 23.6875 -57.375 23.6875 -57.0625 20.5625 C-54.89959732 18.06684306 -53.51357393 17.62264319 -50.25 17.1875 C-47.0625 17.5625 -47.0625 17.5625 -43.6875 19.0625 C-36.36191347 22.09377719 -30.39173274 20.39093701 -23.3125 17.6875 C-22.57128906 17.41808594 -21.83007812 17.14867187 -21.06640625 16.87109375 C-18.2058476 15.81828491 -15.43955155 14.75353945 -12.71875 13.375 C-10.46083216 12.26734219 -8.53820374 12.4249609 -6.0625 12.5625 C-8.75316061 7.36088388 -11.50069491 5.7369345 -16.79003906 3.51318359 C-22.79397542 1.76897827 -28.74230666 2.12856482 -34.9375 2.375 C-59.21827342 3.12531772 -59.21827342 3.12531772 -66.0625 -1.4375 C-65.12114284 -4.0048377 -64.47770729 -5.2039459 -62.0625 -6.5625 C-43.09181123 -12.09561756 -16.97243244 -10.95993107 0 0 Z " fill="#191713" transform="translate(456.0625,300.4375)"/>
<path d="M0 0 C-0.125 2.3125 -0.125 2.3125 -1 5 C-6.45764536 8.84123792 -11.93018862 8.27753154 -18.3125 8.25 C-29.69275169 8.43065264 -37.90289412 11.06540988 -48 16 C-49.98779099 16.70223316 -51.98417121 17.38284626 -54 18 C-53.67 19.65 -53.34 21.3 -53 23 C-51.99582031 23.12117188 -50.99164063 23.24234375 -49.95703125 23.3671875 C-43.41028955 24.16680798 -36.88435818 24.9923583 -30.375 26.0625 C-24.55626946 27.00804371 -18.78680589 27.35349328 -12.8984375 27.55859375 C-10 28 -10 28 -8.0859375 29.40234375 C-7 31 -7 31 -7.25 33.125 C-8 35 -8 35 -9 36 C-25.40851748 37.03298173 -47.76144943 37.30779324 -62 28 C-64.31174717 25.42625482 -64.95965609 24.20978835 -65.625 20.75 C-64.57983593 14.47901559 -60.70572748 11.05767737 -55.765625 7.30078125 C-46.14152656 1.05769779 -35.20330689 -1.08818745 -24.125 -3.3125 C-23.23321045 -3.49635254 -22.3414209 -3.68020508 -21.42260742 -3.86962891 C-12.92781304 -5.4810816 -7.28015161 -4.6058102 0 0 Z " fill="#1D1C18" transform="translate(105,294)"/>
<path d="M0 0 C1.1859375 0.13277344 2.371875 0.26554688 3.59375 0.40234375 C5.22907836 0.58153688 6.86450246 0.75985759 8.5 0.9375 C9.35625977 1.0310376 10.21251953 1.1245752 11.09472656 1.22094727 C15.25453406 1.66070494 19.39925415 2.0515312 23.578125 2.25 C24.28388672 2.28359619 24.98964844 2.31719238 25.71679688 2.35180664 C27.63885181 2.43281544 29.5616243 2.49624514 31.484375 2.55859375 C36.77111891 3.22237382 41.62079897 4.76457869 45 9.0625 C45.48726562 9.67222656 45.97453125 10.28195313 46.4765625 10.91015625 C48.17098161 13.2345517 49.76944148 15.61345713 51.375 18 C54.2435786 22.19745243 57.33879363 25.35931043 61.30078125 28.52734375 C63 30 63 30 65 33 C60.41531297 31.56816427 56.09168849 29.76301993 51.75 27.7265625 C51.06257217 27.4064772 50.37514435 27.08639191 49.66688538 26.75660706 C47.44224493 25.71765748 45.22074273 24.67225307 43 23.625 C42.24443817 23.2695108 41.48887634 22.91402161 40.7104187 22.54776001 C31.03623451 17.98641557 21.45657678 13.30639903 12.0625 8.1875 C11.17111328 7.70297363 10.27972656 7.21844727 9.36132812 6.71923828 C5.80213709 4.73899514 2.78970331 3.00558935 0 0 Z " fill="#FCC822" transform="translate(111,215)"/>
<path d="M0 0 C3.38156701 0.28179725 4.7282124 0.72428823 7.14746094 3.1784668 C9.29854432 6.45470172 9.47011619 8.0818359 9.390625 11.95703125 C9.37773437 13.06884766 9.36484375 14.18066406 9.3515625 15.32617188 C9.31804687 16.47666016 9.28453125 17.62714844 9.25 18.8125 C9.23195313 19.98232422 9.21390625 21.15214844 9.1953125 22.35742188 C9.14827232 25.23863282 9.07653197 28.11942156 9 31 C5.37 30.67 1.74 30.34 -2 30 C-1.86109398 25.74974382 -1.71268006 21.49987158 -1.5625 17.25 C-1.52318359 16.0434375 -1.48386719 14.836875 -1.44335938 13.59375 C-1.40146484 12.43359375 -1.35957031 11.2734375 -1.31640625 10.078125 C-1.27974854 9.00981445 -1.24309082 7.94150391 -1.20532227 6.84082031 C-1.03013091 4.41688848 -0.68801513 2.32113288 0 0 Z " fill="#F8C317" transform="translate(361,141)"/>
<path d="M0 0 C3.65316671 1.24976756 4.78065836 1.67098753 7 5 C8.6157907 12.20124006 9.59407798 19.6334331 9 27 C7.7734375 28.73046875 7.7734375 28.73046875 6 30 C3.73828125 30.29296875 3.73828125 30.29296875 1.3125 30.1875 C0.50425781 30.16042969 -0.30398438 30.13335937 -1.13671875 30.10546875 C-1.75160156 30.07066406 -2.36648438 30.03585937 -3 30 C-2.76445273 26.42168618 -2.52687233 22.84352656 -2.28515625 19.265625 C-2.09752177 16.48481839 -1.91843519 13.70366863 -1.74609375 10.921875 C-1.66488281 9.66890625 -1.58367187 8.4159375 -1.5 7.125 C-1.39171875 5.39636719 -1.39171875 5.39636719 -1.28125 3.6328125 C-1 1 -1 1 0 0 Z " fill="#F6C117" transform="translate(372,309)"/>
<path d="M0 0 C3.27322605 2.92501051 4.82396922 4.74263729 5.4375 9.125 C5.00854605 11.94384026 4.65158469 13.68778143 3 16 C0.08763298 17.77026231 -2.16991841 18.29527877 -5.5625 18.3125 C-6.70912109 18.33763672 -6.70912109 18.33763672 -7.87890625 18.36328125 C-10.57073983 17.90224898 -11.42317754 17.21247901 -13 15 C-13.94200156 10.46820872 -13.57366138 6.91785821 -11.125 3 C-7.51302429 -0.39950655 -4.92360226 -0.5841562 0 0 Z " fill="#161511" transform="translate(245,316)"/>
<path d="M0 0 C2 2 2 2 2.25 5.5625 C2.12616749 10.77299115 1.34794355 16.30411289 -1 21 C-4.63 20.67 -8.26 20.34 -12 20 C-11.5846111 6.00139392 -11.5846111 6.00139392 -7 1 C-4.48718205 -0.25640898 -2.78302919 -0.20872719 0 0 Z " fill="#F7C217" transform="translate(123,317)"/>
<path d="M0 0 C0.99 0 1.98 0 3 0 C4.66663557 7.91651895 4.65825224 15.35752481 2 23 C-0.3260857 23.38063221 -2.66055264 23.71269945 -5 24 C-6 23 -6 23 -6.25 19.625 C-6.16480236 12.88221532 -4.7571254 5.02728314 0 0 Z " fill="#F6C117" transform="translate(132,148)"/>
<path d="M0 0 C-0.39832031 0.59167969 -0.79664062 1.18335938 -1.20703125 1.79296875 C-2.00173828 2.97826172 -2.00173828 2.97826172 -2.8125 4.1875 C-3.36679688 5.00476563 -3.92109375 5.82203125 -4.4921875 6.6640625 C-6.10889046 9.05425766 -6.10889046 9.05425766 -7.4375 12.0625 C-9 14 -9 14 -12.375 14.4375 C-18.18979592 13.73571429 -18.18979592 13.73571429 -21 12 C-21.8125 9.375 -21.8125 9.375 -22 7 C-19.86328101 6.05034712 -17.7261277 5.10197496 -15.5859375 4.16015625 C-13.89260074 3.40045683 -12.20954103 2.61731748 -10.5390625 1.80859375 C-9.76304688 1.43863281 -8.98703125 1.06867188 -8.1875 0.6875 C-7.12595703 0.16736328 -7.12595703 0.16736328 -6.04296875 -0.36328125 C-3.63151889 -1.1148421 -2.35361821 -0.8197996 0 0 Z " fill="#F8F8F6" transform="translate(72,305)"/>
<path d="M0 0 C0.495 1.485 0.495 1.485 1 3 C-7.22016301 7.58191659 -15.30952798 11.75275859 -24.18359375 14.96484375 C-26.54870856 15.83413005 -28.78808219 16.7981525 -31.0625 17.875 C-34.19914811 19.07626949 -34.94922309 18.95787834 -38 18 C-37.28021973 17.70649658 -36.56043945 17.41299316 -35.81884766 17.1105957 C-27.13584003 13.5359393 -18.62580518 9.64270842 -10.12109375 5.66601562 C-9.09886719 5.19228516 -8.07664062 4.71855469 -7.0234375 4.23046875 C-5.64551025 3.58694458 -5.64551025 3.58694458 -4.23974609 2.93041992 C-2 2 -2 2 0 2 C0 1.34 0 0.68 0 0 Z " fill="#E1BB42" transform="translate(337,173)"/>
<path d="M0 0 C-3.43772727 3.43772727 -7.10960984 3.97127774 -11.875 4.125 C-12.90625 4.08375 -13.9375 4.0425 -15 4 C-14 2 -14 2 -12.109375 1.3671875 C-8.02124399 0.51436547 -4.20385856 -0.27121668 0 0 Z " fill="#F3C738" transform="translate(134,410)"/>
</svg>
